<svg xmlns="http://www.w3.org/2000/svg" viewBox="0 0 1400 1600">
  <defs>
    <style>
      .layer-title { font-size: 18px; font-weight: bold; fill: #ffffff; }
      .component-title { font-size: 14px; font-weight: bold; fill: #333333; }
      .component-text { font-size: 12px; fill: #666666; }
      .arrow { stroke: #4A5568; stroke-width: 2; fill: none; marker-end: url(#arrowhead); }
      .arrow-bi { stroke: #4A5568; stroke-width: 2; fill: none; marker-end: url(#arrowhead); marker-start: url(#arrowhead-start); }
      .dashed { stroke-dasharray: 5,5; }
    </style>
    <marker id="arrowhead" markerWidth="10" markerHeight="10" refX="9" refY="3" orient="auto">
      <polygon points="0 0, 10 3, 0 6" fill="#4A5568" />
    </marker>
    <marker id="arrowhead-start" markerWidth="10" markerHeight="10" refX="1" refY="3" orient="auto">
      <polygon points="10 0, 0 3, 10 6" fill="#4A5568" />
    </marker>
  </defs>

  <!-- Title -->
  <text x="700" y="30" text-anchor="middle" font-size="24" font-weight="bold" fill="#1A202C">CampusPandit Architecture</text>

  <!-- Frontend Layer -->
  <rect x="50" y="60" width="1300" height="380" fill="#4299E1" rx="10"/>
  <text x="700" y="85" text-anchor="middle" class="layer-title">Frontend Layer (React + TypeScript + Vite)</text>

  <!-- UI Components -->
  <rect x="70" y="100" width="280" height="320" fill="#EDF2F7" rx="8"/>
  <text x="210" y="125" text-anchor="middle" class="component-title">UI Components</text>

  <rect x="90" y="135" width="240" height="45" fill="#ffffff" rx="5"/>
  <text x="210" y="155" text-anchor="middle" class="component-text">Dashboard</text>
  <text x="210" y="170" text-anchor="middle" class="component-text" font-size="10">Main user interface</text>

  <rect x="90" y="185" width="240" height="45" fill="#ffffff" rx="5"/>
  <text x="210" y="205" text-anchor="middle" class="component-text">Course Management</text>
  <text x="210" y="220" text-anchor="middle" class="component-text" font-size="10">Board-specific courses</text>

  <rect x="90" y="235" width="240" height="45" fill="#ffffff" rx="5"/>
  <text x="210" y="255" text-anchor="middle" class="component-text">Gaming System</text>
  <text x="210" y="270" text-anchor="middle" class="component-text" font-size="10">Tournaments, Battles, Teams</text>

  <rect x="90" y="285" width="240" height="45" fill="#ffffff" rx="5"/>
  <text x="210" y="305" text-anchor="middle" class="component-text">Admin Panel</text>
  <text x="210" y="320" text-anchor="middle" class="component-text" font-size="10">Content & User Management</text>

  <rect x="90" y="335" width="240" height="45" fill="#ffffff" rx="5"/>
  <text x="210" y="355" text-anchor="middle" class="component-text">Auth Components</text>
  <text x="210" y="370" text-anchor="middle" class="component-text" font-size="10">Login, Signup, Profile</text>

  <!-- Core Features -->
  <rect x="370" y="100" width="280" height="320" fill="#EDF2F7" rx="8"/>
  <text x="510" y="125" text-anchor="middle" class="component-title">Core Features</text>

  <rect x="390" y="135" width="240" height="45" fill="#ffffff" rx="5"/>
  <text x="510" y="155" text-anchor="middle" class="component-text">Question Bank</text>
  <text x="510" y="170" text-anchor="middle" class="component-text" font-size="10">MCQ, Structured, Essay</text>

  <rect x="390" y="185" width="240" height="45" fill="#ffffff" rx="5"/>
  <text x="510" y="205" text-anchor="middle" class="component-text">Mock Tests</text>
  <text x="510" y="220" text-anchor="middle" class="component-text" font-size="10">JEE/NEET preparation</text>

  <rect x="390" y="235" width="240" height="45" fill="#ffffff" rx="5"/>
  <text x="510" y="255" text-anchor="middle" class="component-text">Progress Tracking</text>
  <text x="510" y="270" text-anchor="middle" class="component-text" font-size="10">Analytics & Reports</text>

  <rect x="390" y="285" width="240" height="45" fill="#ffffff" rx="5"/>
  <text x="510" y="305" text-anchor="middle" class="component-text">Content Viewer</text>
  <text x="510" y="320" text-anchor="middle" class="component-text" font-size="10">LaTeX, Video, Markdown</text>

  <rect x="390" y="335" width="240" height="45" fill="#ffffff" rx="5"/>
  <text x="510" y="355" text-anchor="middle" class="component-text">Discussion Forums</text>
  <text x="510" y="370" text-anchor="middle" class="component-text" font-size="10">Student interaction</text>

  <!-- State & Routing -->
  <rect x="670" y="100" width="280" height="155" fill="#EDF2F7" rx="8"/>
  <text x="810" y="125" text-anchor="middle" class="component-title">State Management</text>

  <rect x="690" y="135" width="240" height="45" fill="#ffffff" rx="5"/>
  <text x="810" y="155" text-anchor="middle" class="component-text">React State Hooks</text>
  <text x="810" y="170" text-anchor="middle" class="component-text" font-size="10">useState, useEffect</text>

  <rect x="690" y="185" width="240" height="45" fill="#ffffff" rx="5"/>
  <text x="810" y="205" text-anchor="middle" class="component-text">React Router</text>
  <text x="810" y="220" text-anchor="middle" class="component-text" font-size="10">Client-side routing</text>

  <!-- PWA Features -->
  <rect x="670" y="265" width="280" height="155" fill="#EDF2F7" rx="8"/>
  <text x="810" y="290" text-anchor="middle" class="component-title">PWA Features</text>

  <rect x="690" y="300" width="240" height="45" fill="#ffffff" rx="5"/>
  <text x="810" y="320" text-anchor="middle" class="component-text">Service Worker</text>
  <text x="810" y="335" text-anchor="middle" class="component-text" font-size="10">Offline caching</text>

  <rect x="690" y="350" width="240" height="45" fill="#ffffff" rx="5"/>
  <text x="810" y="370" text-anchor="middle" class="component-text">Workbox</text>
  <text x="810" y="385" text-anchor="middle" class="component-text" font-size="10">Cache strategies</text>

  <!-- Utilities & Libraries -->
  <rect x="970" y="100" width="360" height="320" fill="#EDF2F7" rx="8"/>
  <text x="1150" y="125" text-anchor="middle" class="component-title">Utilities & Libraries</text>

  <rect x="990" y="135" width="155" height="45" fill="#ffffff" rx="5"/>
  <text x="1067" y="155" text-anchor="middle" class="component-text" font-size="11">KaTeX</text>
  <text x="1067" y="170" text-anchor="middle" class="component-text" font-size="10">LaTeX rendering</text>

  <rect x="1155" y="135" width="155" height="45" fill="#ffffff" rx="5"/>
  <text x="1232" y="155" text-anchor="middle" class="component-text" font-size="11">React Player</text>
  <text x="1232" y="170" text-anchor="middle" class="component-text" font-size="10">Video playback</text>

  <rect x="990" y="185" width="155" height="45" fill="#ffffff" rx="5"/>
  <text x="1067" y="205" text-anchor="middle" class="component-text" font-size="11">React Markdown</text>
  <text x="1067" y="220" text-anchor="middle" class="component-text" font-size="10">Content rendering</text>

  <rect x="1155" y="185" width="155" height="45" fill="#ffffff" rx="5"/>
  <text x="1232" y="205" text-anchor="middle" class="component-text" font-size="11">React Quill</text>
  <text x="1232" y="220" text-anchor="middle" class="component-text" font-size="10">Rich text editor</text>

  <rect x="990" y="235" width="155" height="45" fill="#ffffff" rx="5"/>
  <text x="1067" y="255" text-anchor="middle" class="component-text" font-size="11">Lucide Icons</text>
  <text x="1067" y="270" text-anchor="middle" class="component-text" font-size="10">UI icons</text>

  <rect x="1155" y="235" width="155" height="45" fill="#ffffff" rx="5"/>
  <text x="1232" y="255" text-anchor="middle" class="component-text" font-size="11">date-fns</text>
  <text x="1232" y="270" text-anchor="middle" class="component-text" font-size="10">Date utilities</text>

  <rect x="990" y="285" width="340" height="45" fill="#ffffff" rx="5"/>
  <text x="1160" y="305" text-anchor="middle" class="component-text" font-size="11">TailwindCSS + PostCSS</text>
  <text x="1160" y="320" text-anchor="middle" class="component-text" font-size="10">Styling framework</text>

  <rect x="990" y="335" width="340" height="45" fill="#ffffff" rx="5"/>
  <text x="1160" y="355" text-anchor="middle" class="component-text" font-size="11">React Dropzone</text>
  <text x="1160" y="370" text-anchor="middle" class="component-text" font-size="10">File upload handling</text>

  <!-- API Layer -->
  <rect x="50" y="470" width="1300" height="180" fill="#48BB78" rx="10"/>
  <text x="700" y="495" text-anchor="middle" class="layer-title">API Layer (Client-side API)</text>

  <rect x="100" y="510" width="280" height="120" fill="#EDF2F7" rx="8"/>
  <text x="240" y="535" text-anchor="middle" class="component-title">Supabase Client</text>

  <rect x="120" y="545" width="240" height="35" fill="#ffffff" rx="5"/>
  <text x="240" y="567" text-anchor="middle" class="component-text">@supabase/supabase-js</text>

  <rect x="120" y="585" width="240" height="35" fill="#ffffff" rx="5"/>
  <text x="240" y="607" text-anchor="middle" class="component-text">Auth & Session Management</text>

  <rect x="420" y="510" width="280" height="120" fill="#EDF2F7" rx="8"/>
  <text x="560" y="535" text-anchor="middle" class="component-title">API Functions</text>

  <rect x="440" y="545" width="240" height="35" fill="#ffffff" rx="5"/>
  <text x="560" y="567" text-anchor="middle" class="component-text">questionAPI</text>

  <rect x="440" y="585" width="240" height="35" fill="#ffffff" rx="5"/>
  <text x="560" y="607" text-anchor="middle" class="component-text">collectionAPI</text>

  <rect x="740" y="510" width="280" height="120" fill="#EDF2F7" rx="8"/>
  <text x="880" y="535" text-anchor="middle" class="component-title">Admin API</text>

  <rect x="760" y="545" width="240" height="35" fill="#ffffff" rx="5"/>
  <text x="880" y="567" text-anchor="middle" class="component-text">User Management</text>

  <rect x="760" y="585" width="240" height="35" fill="#ffffff" rx="5"/>
  <text x="880" y="607" text-anchor="middle" class="component-text">Analytics & Logs</text>

  <rect x="1060" y="510" width="250" height="120" fill="#EDF2F7" rx="8"/>
  <text x="1185" y="535" text-anchor="middle" class="component-title">External Services</text>

  <rect x="1080" y="545" width="210" height="35" fill="#ffffff" rx="5"/>
  <text x="1185" y="567" text-anchor="middle" class="component-text">Stripe API</text>

  <rect x="1080" y="585" width="210" height="35" fill="#ffffff" rx="5"/>
  <text x="1185" y="607" text-anchor="middle" class="component-text">OpenAI API (Scripts)</text>

  <!-- Backend Services Layer -->
  <rect x="50" y="680" width="1300" height="200" fill="#9F7AEA" rx="10"/>
  <text x="700" y="705" text-anchor="middle" class="layer-title">Backend Services (Supabase)</text>

  <rect x="100" y="720" width="240" height="140" fill="#EDF2F7" rx="8"/>
  <text x="220" y="745" text-anchor="middle" class="component-title">Authentication</text>

  <rect x="120" y="755" width="200" height="30" fill="#ffffff" rx="5"/>
  <text x="220" y="775" text-anchor="middle" class="component-text" font-size="11">Email/Password Auth</text>

  <rect x="120" y="790" width="200" height="30" fill="#ffffff" rx="5"/>
  <text x="220" y="810" text-anchor="middle" class="component-text" font-size="11">OAuth Providers</text>

  <rect x="120" y="825" width="200" height="30" fill="#ffffff" rx="5"/>
  <text x="220" y="845" text-anchor="middle" class="component-text" font-size="11">Session Management</text>

  <rect x="370" y="720" width="240" height="140" fill="#EDF2F7" rx="8"/>
  <text x="490" y="745" text-anchor="middle" class="component-title">Database (PostgreSQL)</text>

  <rect x="390" y="755" width="200" height="30" fill="#ffffff" rx="5"/>
  <text x="490" y="775" text-anchor="middle" class="component-text" font-size="11">Row Level Security</text>

  <rect x="390" y="790" width="200" height="30" fill="#ffffff" rx="5"/>
  <text x="490" y="810" text-anchor="middle" class="component-text" font-size="11">Real-time Subscriptions</text>

  <rect x="390" y="825" width="200" height="30" fill="#ffffff" rx="5"/>
  <text x="490" y="845" text-anchor="middle" class="component-text" font-size="11">Auto-generated APIs</text>

  <rect x="640" y="720" width="240" height="140" fill="#EDF2F7" rx="8"/>
  <text x="760" y="745" text-anchor="middle" class="component-title">Storage</text>

  <rect x="660" y="755" width="200" height="30" fill="#ffffff" rx="5"/>
  <text x="760" y="775" text-anchor="middle" class="component-text" font-size="11">File Storage</text>

  <rect x="660" y="790" width="200" height="30" fill="#ffffff" rx="5"/>
  <text x="760" y="810" text-anchor="middle" class="component-text" font-size="11">CDN Distribution</text>

  <rect x="660" y="825" width="200" height="30" fill="#ffffff" rx="5"/>
  <text x="760" y="845" text-anchor="middle" class="component-text" font-size="11">Access Policies</text>

  <rect x="910" y="720" width="400" height="140" fill="#EDF2F7" rx="8"/>
  <text x="1110" y="745" text-anchor="middle" class="component-title">Edge Functions & Hooks</text>

  <rect x="930" y="755" width="360" height="30" fill="#ffffff" rx="5"/>
  <text x="1110" y="775" text-anchor="middle" class="component-text" font-size="11">Database Triggers (Analytics Updates)</text>

  <rect x="930" y="790" width="360" height="30" fill="#ffffff" rx="5"/>
  <text x="1110" y="810" text-anchor="middle" class="component-text" font-size="11">Webhooks (Payment Processing)</text>

  <rect x="930" y="825" width="360" height="30" fill="#ffffff" rx="5"/>
  <text x="1110" y="845" text-anchor="middle" class="component-text" font-size="11">Scheduled Functions</text>

  <!-- Database Schema Layer -->
  <rect x="50" y="910" width="1300" height="250" fill="#ED8936" rx="10"/>
  <text x="700" y="935" text-anchor="middle" class="layer-title">Database Schema</text>

  <rect x="80" y="950" width="190" height="190" fill="#EDF2F7" rx="8"/>
  <text x="175" y="975" text-anchor="middle" class="component-title">Questions</text>
  <text x="175" y="995" text-anchor="middle" class="component-text" font-size="10">questions</text>
  <text x="175" y="1010" text-anchor="middle" class="component-text" font-size="10">question_options</text>
  <text x="175" y="1025" text-anchor="middle" class="component-text" font-size="10">question_collections</text>
  <text x="175" y="1040" text-anchor="middle" class="component-text" font-size="10">collection_questions</text>
  <text x="175" y="1055" text-anchor="middle" class="component-text" font-size="10">question_analytics</text>
  <text x="175" y="1075" text-anchor="middle" class="component-text" font-size="9" fill="#888">subject, board, difficulty</text>
  <text x="175" y="1090" text-anchor="middle" class="component-text" font-size="9" fill="#888">topic_tags, metadata</text>
  <text x="175" y="1105" text-anchor="middle" class="component-text" font-size="9" fill="#888">question_type, marks</text>
  <text x="175" y="1120" text-anchor="middle" class="component-text" font-size="9" fill="#888">time_limit, is_published</text>

  <rect x="290" y="950" width="190" height="190" fill="#EDF2F7" rx="8"/>
  <text x="385" y="975" text-anchor="middle" class="component-title">User Management</text>
  <text x="385" y="995" text-anchor="middle" class="component-text" font-size="10">users (Supabase Auth)</text>
  <text x="385" y="1010" text-anchor="middle" class="component-text" font-size="10">profiles</text>
  <text x="385" y="1025" text-anchor="middle" class="component-text" font-size="10">roles</text>
  <text x="385" y="1040" text-anchor="middle" class="component-text" font-size="10">user_roles</text>
  <text x="385" y="1060" text-anchor="middle" class="component-text" font-size="9" fill="#888">role: student/teacher</text>
  <text x="385" y="1075" text-anchor="middle" class="component-text" font-size="9" fill="#888">admin/super_admin</text>

  <rect x="500" y="950" width="190" height="190" fill="#EDF2F7" rx="8"/>
  <text x="595" y="975" text-anchor="middle" class="component-title">Progress Tracking</text>
  <text x="595" y="995" text-anchor="middle" class="component-text" font-size="10">student_responses</text>
  <text x="595" y="1010" text-anchor="middle" class="component-text" font-size="10">student_progress</text>
  <text x="595" y="1025" text-anchor="middle" class="component-text" font-size="10">test_sessions</text>
  <text x="595" y="1040" text-anchor="middle" class="component-text" font-size="10">achievements</text>
  <text x="595" y="1060" text-anchor="middle" class="component-text" font-size="9" fill="#888">response_data</text>
  <text x="595" y="1075" text-anchor="middle" class="component-text" font-size="9" fill="#888">is_correct, score</text>
  <text x="595" y="1090" text-anchor="middle" class="component-text" font-size="9" fill="#888">time_taken</text>

  <rect x="710" y="950" width="190" height="190" fill="#EDF2F7" rx="8"/>
  <text x="805" y="975" text-anchor="middle" class="component-title">Gaming System</text>
  <text x="805" y="995" text-anchor="middle" class="component-text" font-size="10">teams</text>
  <text x="805" y="1010" text-anchor="middle" class="component-text" font-size="10">team_members</text>
  <text x="805" y="1025" text-anchor="middle" class="component-text" font-size="10">tournaments</text>
  <text x="805" y="1040" text-anchor="middle" class="component-text" font-size="10">tournament_participants</text>
  <text x="805" y="1055" text-anchor="middle" class="component-text" font-size="10">quiz_battles</text>
  <text x="805" y="1075" text-anchor="middle" class="component-text" font-size="9" fill="#888">points, ranks</text>
  <text x="805" y="1090" text-anchor="middle" class="component-text" font-size="9" fill="#888">rewards, badges</text>

  <rect x="920" y="950" width="190" height="190" fill="#EDF2F7" rx="8"/>
  <text x="1015" y="975" text-anchor="middle" class="component-title">Content</text>
  <text x="1015" y="995" text-anchor="middle" class="component-text" font-size="10">courses</text>
  <text x="1015" y="1010" text-anchor="middle" class="component-text" font-size="10">topics</text>
  <text x="1015" y="1025" text-anchor="middle" class="component-text" font-size="10">lessons</text>
  <text x="1015" y="1040" text-anchor="middle" class="component-text" font-size="10">exercises</text>
  <text x="1015" y="1060" text-anchor="middle" class="component-text" font-size="9" fill="#888">board-specific</text>
  <text x="1015" y="1075" text-anchor="middle" class="component-text" font-size="9" fill="#888">video_url, content</text>

  <rect x="1130" y="950" width="190" height="190" fill="#EDF2F7" rx="8"/>
  <text x="1225" y="975" text-anchor="middle" class="component-title">Admin & Analytics</text>
  <text x="1225" y="995" text-anchor="middle" class="component-text" font-size="10">audit_logs</text>
  <text x="1225" y="1010" text-anchor="middle" class="component-text" font-size="10">system_settings</text>
  <text x="1225" y="1025" text-anchor="middle" class="component-text" font-size="10">subscriptions</text>
  <text x="1225" y="1040" text-anchor="middle" class="component-text" font-size="10">payments</text>
  <text x="1225" y="1060" text-anchor="middle" class="component-text" font-size="9" fill="#888">action logs</text>
  <text x="1225" y="1075" text-anchor="middle" class="component-text" font-size="9" fill="#888">stripe integration</text>

  <!-- Tools & Scripts Layer -->
  <rect x="50" y="1190" width="1300" height="180" fill="#38B2AC" rx="10"/>
  <text x="700" y="1215" text-anchor="middle" class="layer-title">Development Tools & Scripts</text>

  <rect x="100" y="1230" width="280" height="120" fill="#EDF2F7" rx="8"/>
  <text x="240" y="1255" text-anchor="middle" class="component-title">Data Import Scripts</text>

  <rect x="120" y="1265" width="240" height="35" fill="#ffffff" rx="5"/>
  <text x="240" y="1287" text-anchor="middle" class="component-text" font-size="11">scrape-questions.js</text>

  <rect x="120" y="1305" width="240" height="35" fill="#ffffff" rx="5"/>
  <text x="240" y="1327" text-anchor="middle" class="component-text" font-size="11">import-questions.js</text>

  <rect x="420" y="1230" width="280" height="120" fill="#EDF2F7" rx="8"/>
  <text x="560" y="1255" text-anchor="middle" class="component-title">Data Processing</text>

  <rect x="440" y="1265" width="240" height="35" fill="#ffffff" rx="5"/>
  <text x="560" y="1287" text-anchor="middle" class="component-text" font-size="11">OpenAI Quality Checks</text>

  <rect x="440" y="1305" width="240" height="35" fill="#ffffff" rx="5"/>
  <text x="560" y="1327" text-anchor="middle" class="component-text" font-size="11">CSV/TSV Converters</text>

  <rect x="740" y="1230" width="280" height="120" fill="#EDF2F7" rx="8"/>
  <text x="880" y="1255" text-anchor="middle" class="component-title">Build Tools</text>

  <rect x="760" y="1265" width="240" height="35" fill="#ffffff" rx="5"/>
  <text x="880" y="1287" text-anchor="middle" class="component-text" font-size="11">Vite (Dev & Build)</text>

  <rect x="760" y="1305" width="240" height="35" fill="#ffffff" rx="5"/>
  <text x="880" y="1327" text-anchor="middle" class="component-text" font-size="11">ESLint + TypeScript</text>

  <rect x="1060" y="1230" width="250" height="120" fill="#EDF2F7" rx="8"/>
  <text x="1185" y="1255" text-anchor="middle" class="component-title">PWA Tools</text>

  <rect x="1080" y="1265" width="210" height="35" fill="#ffffff" rx="5"/>
  <text x="1185" y="1287" text-anchor="middle" class="component-text" font-size="11">vite-plugin-pwa</text>

  <rect x="1080" y="1305" width="210" height="35" fill="#ffffff" rx="5"/>
  <text x="1185" y="1327" text-anchor="middle" class="component-text" font-size="11">Workbox</text>

  <!-- External Systems -->
  <rect x="50" y="1400" width="620" height="120" fill="#E53E3E" rx="10"/>
  <text x="360" y="1425" text-anchor="middle" class="layer-title">External Systems</text>

  <rect x="100" y="1440" width="160" height="60" fill="#EDF2F7" rx="8"/>
  <text x="180" y="1460" text-anchor="middle" class="component-title" font-size="12">Stripe</text>
  <text x="180" y="1480" text-anchor="middle" class="component-text" font-size="10">Payment Processing</text>

  <rect x="280" y="1440" width="160" height="60" fill="#EDF2F7" rx="8"/>
  <text x="360" y="1460" text-anchor="middle" class="component-title" font-size="12">OpenAI API</text>
  <text x="360" y="1480" text-anchor="middle" class="component-text" font-size="10">Content Quality</text>

  <rect x="460" y="1440" width="190" height="60" fill="#EDF2F7" rx="8"/>
  <text x="555" y="1460" text-anchor="middle" class="component-title" font-size="12">OER Sources</text>
  <text x="555" y="1480" text-anchor="middle" class="component-text" font-size="10">Content Scraping</text>

  <!-- Deployment -->
  <rect x="700" y="1400" width="650" height="120" fill="#DD6B20" rx="10"/>
  <text x="1025" y="1425" text-anchor="middle" class="layer-title">Deployment & Hosting</text>

  <rect x="740" y="1440" width="260" height="60" fill="#EDF2F7" rx="8"/>
  <text x="870" y="1460" text-anchor="middle" class="component-title" font-size="12">Static Hosting</text>
  <text x="870" y="1480" text-anchor="middle" class="component-text" font-size="10">Vercel / Netlify / CDN</text>

  <rect x="1020" y="1440" width="300" height="60" fill="#EDF2F7" rx="8"/>
  <text x="1170" y="1460" text-anchor="middle" class="component-title" font-size="12">Supabase Cloud</text>
  <text x="1170" y="1480" text-anchor="middle" class="component-text" font-size="10">Database, Auth, Storage, Edge</text>

  <!-- Data Flow Arrows -->
  <!-- Frontend to API -->
  <path d="M 700 440 L 700 470" class="arrow"/>

  <!-- API to Backend -->
  <path d="M 700 650 L 700 680" class="arrow"/>

  <!-- Backend to Database -->
  <path d="M 700 880 L 700 910" class="arrow"/>

  <!-- Database to Tools (bidirectional) -->
  <path d="M 700 1160 L 700 1190" class="arrow-bi dashed"/>

  <!-- External to Backend -->
  <path d="M 360 1400 L 360 1370 L 500 1370 L 500 880" class="arrow dashed"/>

  <!-- Deployment -->
  <path d="M 870 1400 L 870 1370 L 700 1370 L 700 1160" class="arrow dashed"/>

  <!-- Legend -->
  <rect x="1380" y="60" width="20" height="3" fill="#4A5568"/>
  <text x="1390" y="80" text-anchor="start" font-size="10" fill="#4A5568">Solid: Data flow</text>

  <path d="M 1380 95 L 1410 95" class="arrow dashed"/>
  <text x="1420" y="100" text-anchor="start" font-size="10" fill="#4A5568">Dashed: External/Build</text>
</svg>